<svg width="105" height="96" viewBox="0 0 105 96" fill="none" xmlns="http://www.w3.org/2000/svg">
<g clip-path="url(#clip0_2289_45975)">
<path d="M53.2291 77.0049L36.9767 82.7649L36.3605 84.9057C35.4855 87.9527 32.1612 90.4449 28.9741 90.4449V91.8849H62.6804L53.2291 77.0049Z" fill="#ADACA7"/>
<path d="M59.6394 84.9049L57.3679 77.0041L47.9997 71.2441L38.6314 77.0041L36.9761 82.7641H53.2285L53.8446 84.9049C54.7197 87.952 58.0439 90.4441 61.231 90.4441L64.1284 91.8841L67.0258 90.4441C63.8387 90.4441 60.5144 87.952 59.6394 84.9049Z" fill="#8F8F8B"/>
<path d="M84.4106 77.0051H90.2054C93.3925 77.0051 96.0002 74.4131 96.0002 71.2451V59.7251L84.4106 48.2051V77.0051Z" fill="#ADACA7"/>
<path d="M0 71.2446C0 74.4126 2.60765 77.0046 5.79477 77.0046H84.4105C87.5976 77.0046 90.2052 74.4126 90.2052 71.2446V36.6846L0 59.7246V71.2446Z" fill="#CBC9C2"/>
<path d="M90.2054 2.125H84.4106L90.2054 59.725H96.0002V7.885C96.0002 4.717 93.3925 2.125 90.2054 2.125Z" fill="#404242"/>
<path d="M90.2052 7.885C90.2052 4.717 87.5976 2.125 84.4105 2.125H5.79477C2.60765 2.125 0 4.717 0 7.885V59.725H90.2052V53.965L48 30.9225L90.2052 7.885Z" fill="#565959"/>
<path d="M90.2052 7.88489L84.4116 7.88086C84.4116 7.88182 48 30.9234 48 30.9234C48 30.9234 84.4109 53.9655 84.4105 53.9659L90.205 53.962C90.2052 53.962 90.2047 7.88566 90.2052 7.88489Z" fill="#CED2FF"/>
<path d="M84.4106 7.88313L5.81192 7.87891C5.80709 7.88121 5.80303 53.9631 5.79492 53.9641C5.79492 53.9641 84.4068 53.9603 84.4087 53.9603C84.4096 53.9603 84.4025 7.8839 84.4106 7.88313Z" fill="#E9EBFF"/>
<path d="M47.9999 71.2454C49.6001 71.2454 50.8973 69.9559 50.8973 68.3654C50.8973 66.7748 49.6001 65.4854 47.9999 65.4854C46.3997 65.4854 45.1025 66.7748 45.1025 68.3654C45.1025 69.9559 46.3997 71.2454 47.9999 71.2454Z" fill="white"/>
<path d="M77.9398 93.3243H18.0605C17.2604 93.3243 16.6118 92.6798 16.6118 91.8843C16.6118 91.0889 17.2604 90.4443 18.0605 90.4443H77.9398C78.7398 90.4443 79.3885 91.0889 79.3885 91.8843C79.3885 92.6798 78.7398 93.3243 77.9398 93.3243Z" fill="#8F8F8B"/>
<g clip-path="url(#clip1_2289_45975)">
<path d="M41.8758 29.6997C42.1094 29.9337 42.4904 29.9337 42.724 29.6997L43.4999 28.9238C43.7339 28.6902 43.7339 28.3092 43.4999 28.0756L42.724 27.2997H53.3999C54.3925 27.2997 55.1999 28.1071 55.1999 29.0997C55.1999 29.5958 55.6038 29.9997 56.0999 29.9997H56.6999C57.196 29.9997 57.5999 29.5958 57.5999 29.0997C57.5999 26.7837 55.7159 24.8997 53.3999 24.8997H42.724L43.4999 24.1238C43.7339 23.8902 43.7339 23.5092 43.4999 23.2756L42.724 22.4997C42.4904 22.2657 42.1094 22.2657 41.8758 22.4997L38.4877 25.8875C38.3707 26.0048 38.3707 26.1946 38.4877 26.312L41.8758 29.6997Z" fill="#555555"/>
<path d="M54.124 32.6994C53.8904 32.4654 53.5098 32.4654 53.2758 32.6994L52.4999 33.4753C52.2655 33.7097 52.2651 34.0887 52.4999 34.3235L53.2758 35.0994H42.5999C41.6073 35.0994 40.7999 34.292 40.7999 33.2994C40.7999 32.8033 40.396 32.3994 39.8999 32.3994H39.2999C38.8038 32.3994 38.3999 32.8033 38.3999 33.2994C38.3999 35.6154 40.2839 37.4994 42.5999 37.4994H53.2758L52.4999 38.2753C52.2655 38.5097 52.2651 38.8887 52.4999 39.1235L53.2758 39.8994C53.5098 40.1335 53.89 40.1334 54.124 39.8994L57.5122 36.5117C57.6292 36.3943 57.6292 36.2045 57.5122 36.0872L54.124 32.6994Z" fill="#555555"/>
</g>
</g>
<path d="M77.5498 36H100.05C102.525 36 104.55 38.025 104.55 40.5V89.1C104.55 91.575 102.525 93.6 100.05 93.6H77.5498C75.0748 93.6 73.0498 91.575 73.0498 89.1V40.5C73.0498 38.025 75.0748 36 77.5498 36Z" fill="#A4A3A2"/>
<path d="M76.65 44.0996H100.95C101.445 44.0996 101.85 44.5046 101.85 44.9996V84.5996C101.85 85.0946 101.445 85.4996 100.95 85.4996H76.65C76.155 85.4996 75.75 85.0946 75.75 84.5996V44.9996C75.75 44.5046 76.155 44.0996 76.65 44.0996Z" fill="#E9EBFF"/>
<path d="M88.8002 87.3004C90.0602 87.3004 91.0502 88.2904 91.0502 89.5504C91.0502 90.8104 90.0602 91.8004 88.8002 91.8004C87.5402 91.8004 86.5502 90.8104 86.5502 89.5504C86.5502 88.2904 87.5402 87.3004 88.8002 87.3004ZM86.1002 39.1504H91.5002C91.9952 39.1504 92.4002 39.5554 92.4002 40.0504C92.4002 40.5454 91.9952 40.9504 91.5002 40.9504H86.1002C85.6052 40.9504 85.2002 40.5454 85.2002 40.0504C85.2002 39.5554 85.6052 39.1504 86.1002 39.1504Z" fill="white"/>
<defs>
<clipPath id="clip0_2289_45975">
<rect width="96" height="96" fill="white"/>
</clipPath>
<clipPath id="clip1_2289_45975">
<rect width="19.2" height="19.2" fill="white" transform="translate(38.3999 21.5996)"/>
</clipPath>
</defs>
</svg>

